<mxfile host="app.diagrams.net" modified="2024-05-02T08:31:18.716Z" agent="Mozilla/5.0 (Windows NT 10.0; Win64; x64) AppleWebKit/537.36 (KHTML, like Gecko) Chrome/124.0.0.0 Safari/537.36" etag="fKXUgXNhGN_NKMb1SWCn" version="24.3.1" type="github">
  <diagram name="第 1 页" id="F2pGf4Fhgz4-tr8DqgWt">
    <mxGraphModel dx="2927" dy="2229" grid="1" gridSize="10" guides="1" tooltips="1" connect="1" arrows="1" fold="1" page="1" pageScale="1" pageWidth="827" pageHeight="1169" math="0" shadow="0">
      <root>
        <mxCell id="0" />
        <mxCell id="1" parent="0" />
        <mxCell id="Ph8quGCG-GJHbFmVUrhd-19" style="rounded=0;orthogonalLoop=1;jettySize=auto;html=1;exitX=0.5;exitY=0;exitDx=0;exitDy=0;entryX=0;entryY=0.5;entryDx=0;entryDy=0;endArrow=none;endFill=0;fontSize=27;" parent="1" source="Ph8quGCG-GJHbFmVUrhd-1" target="Ph8quGCG-GJHbFmVUrhd-16" edge="1">
          <mxGeometry relative="1" as="geometry" />
        </mxCell>
        <mxCell id="Ph8quGCG-GJHbFmVUrhd-29" style="rounded=0;orthogonalLoop=1;jettySize=auto;html=1;exitX=0;exitY=1;exitDx=0;exitDy=0;entryX=1;entryY=0.5;entryDx=0;entryDy=0;endArrow=none;endFill=0;fontSize=27;" parent="1" source="Ph8quGCG-GJHbFmVUrhd-1" target="Ph8quGCG-GJHbFmVUrhd-28" edge="1">
          <mxGeometry relative="1" as="geometry" />
        </mxCell>
        <mxCell id="Ph8quGCG-GJHbFmVUrhd-78" style="rounded=0;orthogonalLoop=1;jettySize=auto;html=1;exitX=1;exitY=0.5;exitDx=0;exitDy=0;entryX=0;entryY=0.5;entryDx=0;entryDy=0;endArrow=none;endFill=0;fontSize=27;" parent="1" source="Ph8quGCG-GJHbFmVUrhd-1" target="Ph8quGCG-GJHbFmVUrhd-77" edge="1">
          <mxGeometry relative="1" as="geometry" />
        </mxCell>
        <mxCell id="Ph8quGCG-GJHbFmVUrhd-93" style="rounded=0;orthogonalLoop=1;jettySize=auto;html=1;exitX=0;exitY=0.5;exitDx=0;exitDy=0;entryX=1;entryY=0.5;entryDx=0;entryDy=0;endArrow=none;endFill=0;fontSize=27;" parent="1" source="Ph8quGCG-GJHbFmVUrhd-1" target="Ph8quGCG-GJHbFmVUrhd-92" edge="1">
          <mxGeometry relative="1" as="geometry" />
        </mxCell>
        <mxCell id="Ph8quGCG-GJHbFmVUrhd-104" style="rounded=0;orthogonalLoop=1;jettySize=auto;html=1;exitX=0;exitY=1;exitDx=0;exitDy=0;entryX=1;entryY=0.5;entryDx=0;entryDy=0;endArrow=none;endFill=0;fontSize=27;" parent="1" source="Ph8quGCG-GJHbFmVUrhd-1" target="Ph8quGCG-GJHbFmVUrhd-105" edge="1">
          <mxGeometry relative="1" as="geometry">
            <mxPoint x="90" y="250" as="targetPoint" />
          </mxGeometry>
        </mxCell>
        <mxCell id="jD7vex7ddWac6e5h3DnH-17" style="rounded=0;orthogonalLoop=1;jettySize=auto;html=1;exitX=0;exitY=1;exitDx=0;exitDy=0;endArrow=none;endFill=0;fontSize=27;" edge="1" parent="1" source="Ph8quGCG-GJHbFmVUrhd-1" target="jD7vex7ddWac6e5h3DnH-15">
          <mxGeometry relative="1" as="geometry" />
        </mxCell>
        <mxCell id="jD7vex7ddWac6e5h3DnH-57" style="rounded=0;orthogonalLoop=1;jettySize=auto;html=1;exitX=0;exitY=1;exitDx=0;exitDy=0;entryX=1;entryY=0.5;entryDx=0;entryDy=0;endArrow=none;endFill=0;fontSize=27;" edge="1" parent="1" source="Ph8quGCG-GJHbFmVUrhd-1" target="jD7vex7ddWac6e5h3DnH-56">
          <mxGeometry relative="1" as="geometry" />
        </mxCell>
        <mxCell id="Ph8quGCG-GJHbFmVUrhd-1" value="用户" style="whiteSpace=wrap;html=1;align=center;fontSize=27;" parent="1" vertex="1">
          <mxGeometry x="350" y="230" width="100" height="40" as="geometry" />
        </mxCell>
        <mxCell id="Ph8quGCG-GJHbFmVUrhd-39" style="rounded=0;orthogonalLoop=1;jettySize=auto;html=1;exitX=0.5;exitY=1;exitDx=0;exitDy=0;entryX=0.5;entryY=0;entryDx=0;entryDy=0;endArrow=none;endFill=0;fontSize=27;" parent="1" source="Ph8quGCG-GJHbFmVUrhd-2" target="Ph8quGCG-GJHbFmVUrhd-38" edge="1">
          <mxGeometry relative="1" as="geometry" />
        </mxCell>
        <mxCell id="Ph8quGCG-GJHbFmVUrhd-51" style="rounded=0;orthogonalLoop=1;jettySize=auto;html=1;entryX=0.5;entryY=0;entryDx=0;entryDy=0;endArrow=none;endFill=0;exitX=0;exitY=0.5;exitDx=0;exitDy=0;fontSize=27;" parent="1" source="Ph8quGCG-GJHbFmVUrhd-2" target="Ph8quGCG-GJHbFmVUrhd-50" edge="1">
          <mxGeometry relative="1" as="geometry">
            <mxPoint x="130" y="510" as="sourcePoint" />
          </mxGeometry>
        </mxCell>
        <mxCell id="Ph8quGCG-GJHbFmVUrhd-53" style="rounded=0;orthogonalLoop=1;jettySize=auto;html=1;exitX=0;exitY=0.5;exitDx=0;exitDy=0;entryX=1;entryY=0.5;entryDx=0;entryDy=0;endArrow=none;endFill=0;fontSize=27;" parent="1" source="Ph8quGCG-GJHbFmVUrhd-2" target="Ph8quGCG-GJHbFmVUrhd-49" edge="1">
          <mxGeometry relative="1" as="geometry" />
        </mxCell>
        <mxCell id="Ph8quGCG-GJHbFmVUrhd-56" style="rounded=0;orthogonalLoop=1;jettySize=auto;html=1;exitX=0;exitY=0.5;exitDx=0;exitDy=0;entryX=1;entryY=0.5;entryDx=0;entryDy=0;endArrow=none;endFill=0;fontSize=27;" parent="1" source="Ph8quGCG-GJHbFmVUrhd-2" target="Ph8quGCG-GJHbFmVUrhd-48" edge="1">
          <mxGeometry relative="1" as="geometry" />
        </mxCell>
        <mxCell id="Ph8quGCG-GJHbFmVUrhd-2" value="公司" style="whiteSpace=wrap;html=1;align=center;fontSize=27;" parent="1" vertex="1">
          <mxGeometry x="140" y="390" width="100" height="40" as="geometry" />
        </mxCell>
        <mxCell id="jD7vex7ddWac6e5h3DnH-2" style="rounded=0;orthogonalLoop=1;jettySize=auto;html=1;exitX=0;exitY=0.5;exitDx=0;exitDy=0;entryX=1;entryY=0.5;entryDx=0;entryDy=0;endArrow=none;endFill=0;fontSize=27;" edge="1" parent="1" source="Ph8quGCG-GJHbFmVUrhd-3" target="Ph8quGCG-GJHbFmVUrhd-28">
          <mxGeometry relative="1" as="geometry" />
        </mxCell>
        <mxCell id="Ph8quGCG-GJHbFmVUrhd-3" value="角色" style="rounded=0;arcSize=10;whiteSpace=wrap;html=1;align=center;fontSize=27;" parent="1" vertex="1">
          <mxGeometry x="490" y="390" width="100" height="40" as="geometry" />
        </mxCell>
        <mxCell id="Ph8quGCG-GJHbFmVUrhd-106" style="rounded=0;orthogonalLoop=1;jettySize=auto;html=1;exitX=0.5;exitY=1;exitDx=0;exitDy=0;entryX=0.5;entryY=0;entryDx=0;entryDy=0;endArrow=none;endFill=0;fontSize=27;" parent="1" source="Ph8quGCG-GJHbFmVUrhd-13" target="Ph8quGCG-GJHbFmVUrhd-105" edge="1">
          <mxGeometry relative="1" as="geometry" />
        </mxCell>
        <mxCell id="jD7vex7ddWac6e5h3DnH-18" style="rounded=0;orthogonalLoop=1;jettySize=auto;html=1;exitX=1;exitY=1;exitDx=0;exitDy=0;entryX=0;entryY=0.5;entryDx=0;entryDy=0;endArrow=none;endFill=0;fontSize=27;" edge="1" parent="1" source="Ph8quGCG-GJHbFmVUrhd-13" target="jD7vex7ddWac6e5h3DnH-15">
          <mxGeometry relative="1" as="geometry" />
        </mxCell>
        <mxCell id="jD7vex7ddWac6e5h3DnH-22" style="rounded=0;orthogonalLoop=1;jettySize=auto;html=1;exitX=0;exitY=0;exitDx=0;exitDy=0;entryX=1;entryY=0.5;entryDx=0;entryDy=0;endArrow=none;endFill=0;fontSize=27;" edge="1" parent="1" source="Ph8quGCG-GJHbFmVUrhd-13" target="Ph8quGCG-GJHbFmVUrhd-117">
          <mxGeometry relative="1" as="geometry" />
        </mxCell>
        <mxCell id="jD7vex7ddWac6e5h3DnH-35" style="rounded=0;orthogonalLoop=1;jettySize=auto;html=1;exitX=0;exitY=1;exitDx=0;exitDy=0;entryX=1;entryY=0.5;entryDx=0;entryDy=0;endArrow=none;endFill=0;fontSize=27;" edge="1" parent="1" source="Ph8quGCG-GJHbFmVUrhd-13" target="jD7vex7ddWac6e5h3DnH-34">
          <mxGeometry relative="1" as="geometry" />
        </mxCell>
        <mxCell id="jD7vex7ddWac6e5h3DnH-40" style="rounded=0;orthogonalLoop=1;jettySize=auto;html=1;exitX=0;exitY=1;exitDx=0;exitDy=0;entryX=1;entryY=0.5;entryDx=0;entryDy=0;endArrow=none;endFill=0;fontSize=27;" edge="1" parent="1" source="Ph8quGCG-GJHbFmVUrhd-13" target="jD7vex7ddWac6e5h3DnH-39">
          <mxGeometry relative="1" as="geometry" />
        </mxCell>
        <mxCell id="Ph8quGCG-GJHbFmVUrhd-13" value="项目" style="rounded=0;whiteSpace=wrap;html=1;fontSize=27;" parent="1" vertex="1">
          <mxGeometry x="-10" y="90" width="100" height="50" as="geometry" />
        </mxCell>
        <mxCell id="Ph8quGCG-GJHbFmVUrhd-14" value="操作日志" style="rounded=0;whiteSpace=wrap;html=1;fontSize=27;" parent="1" vertex="1">
          <mxGeometry x="707" y="50" width="120" height="60" as="geometry" />
        </mxCell>
        <mxCell id="Ph8quGCG-GJHbFmVUrhd-20" style="rounded=0;orthogonalLoop=1;jettySize=auto;html=1;exitX=1;exitY=0.5;exitDx=0;exitDy=0;entryX=0;entryY=0.5;entryDx=0;entryDy=0;startArrow=none;startFill=0;endArrow=none;endFill=0;fontSize=27;" parent="1" source="Ph8quGCG-GJHbFmVUrhd-16" target="Ph8quGCG-GJHbFmVUrhd-14" edge="1">
          <mxGeometry relative="1" as="geometry" />
        </mxCell>
        <mxCell id="Ph8quGCG-GJHbFmVUrhd-16" value="产生" style="shape=rhombus;perimeter=rhombusPerimeter;whiteSpace=wrap;html=1;align=center;fontSize=27;" parent="1" vertex="1">
          <mxGeometry x="490" y="90" width="120" height="60" as="geometry" />
        </mxCell>
        <mxCell id="Ph8quGCG-GJHbFmVUrhd-26" value="1" style="text;html=1;align=center;verticalAlign=middle;whiteSpace=wrap;rounded=0;fontSize=27;" parent="1" vertex="1">
          <mxGeometry x="375" y="180" width="60" height="30" as="geometry" />
        </mxCell>
        <mxCell id="Ph8quGCG-GJHbFmVUrhd-27" value="N" style="text;html=1;align=center;verticalAlign=middle;whiteSpace=wrap;rounded=0;fontSize=27;" parent="1" vertex="1">
          <mxGeometry x="640" y="65" width="60" height="30" as="geometry" />
        </mxCell>
        <mxCell id="Ph8quGCG-GJHbFmVUrhd-30" style="rounded=0;orthogonalLoop=1;jettySize=auto;html=1;exitX=0;exitY=0.5;exitDx=0;exitDy=0;entryX=0.5;entryY=0;entryDx=0;entryDy=0;endArrow=none;endFill=0;fontSize=27;" parent="1" source="Ph8quGCG-GJHbFmVUrhd-28" target="Ph8quGCG-GJHbFmVUrhd-2" edge="1">
          <mxGeometry relative="1" as="geometry" />
        </mxCell>
        <mxCell id="Ph8quGCG-GJHbFmVUrhd-28" value="加入" style="rhombus;whiteSpace=wrap;html=1;fontSize=27;" parent="1" vertex="1">
          <mxGeometry x="275" y="340" width="80" height="60" as="geometry" />
        </mxCell>
        <mxCell id="Ph8quGCG-GJHbFmVUrhd-31" value="N" style="text;html=1;align=center;verticalAlign=middle;whiteSpace=wrap;rounded=0;fontSize=27;" parent="1" vertex="1">
          <mxGeometry x="345" y="290" width="60" height="30" as="geometry" />
        </mxCell>
        <mxCell id="Ph8quGCG-GJHbFmVUrhd-37" value="设备" style="rounded=0;whiteSpace=wrap;html=1;fontSize=27;" parent="1" vertex="1">
          <mxGeometry x="270" y="660" width="120" height="60" as="geometry" />
        </mxCell>
        <mxCell id="Ph8quGCG-GJHbFmVUrhd-40" style="rounded=0;orthogonalLoop=1;jettySize=auto;html=1;exitX=1;exitY=0.5;exitDx=0;exitDy=0;entryX=0.25;entryY=0;entryDx=0;entryDy=0;endArrow=none;endFill=0;fontSize=27;" parent="1" source="Ph8quGCG-GJHbFmVUrhd-38" target="Ph8quGCG-GJHbFmVUrhd-37" edge="1">
          <mxGeometry relative="1" as="geometry" />
        </mxCell>
        <mxCell id="Ph8quGCG-GJHbFmVUrhd-38" value="添加" style="rhombus;whiteSpace=wrap;html=1;fontSize=27;" parent="1" vertex="1">
          <mxGeometry x="195" y="505" width="90" height="70" as="geometry" />
        </mxCell>
        <mxCell id="Ph8quGCG-GJHbFmVUrhd-41" value="N" style="text;html=1;align=center;verticalAlign=middle;whiteSpace=wrap;rounded=0;fontSize=27;" parent="1" vertex="1">
          <mxGeometry x="173" y="460" width="60" height="30" as="geometry" />
        </mxCell>
        <mxCell id="Ph8quGCG-GJHbFmVUrhd-42" value="1" style="text;html=1;align=center;verticalAlign=middle;whiteSpace=wrap;rounded=0;fontSize=27;" parent="1" vertex="1">
          <mxGeometry x="230" y="620" width="60" height="30" as="geometry" />
        </mxCell>
        <mxCell id="Ph8quGCG-GJHbFmVUrhd-43" value="地址" style="rounded=0;whiteSpace=wrap;html=1;fontSize=27;" parent="1" vertex="1">
          <mxGeometry x="-280" y="595" width="120" height="60" as="geometry" />
        </mxCell>
        <mxCell id="Ph8quGCG-GJHbFmVUrhd-44" value="行业" style="rounded=0;whiteSpace=wrap;html=1;fontSize=27;" parent="1" vertex="1">
          <mxGeometry x="60" y="650" width="120" height="60" as="geometry" />
        </mxCell>
        <mxCell id="Ph8quGCG-GJHbFmVUrhd-45" value="研发费用分类" style="rounded=0;whiteSpace=wrap;html=1;fontSize=27;" parent="1" vertex="1">
          <mxGeometry x="-300" y="460" width="120" height="60" as="geometry" />
        </mxCell>
        <mxCell id="Ph8quGCG-GJHbFmVUrhd-55" style="rounded=0;orthogonalLoop=1;jettySize=auto;html=1;exitX=0;exitY=0.5;exitDx=0;exitDy=0;entryX=1;entryY=0.5;entryDx=0;entryDy=0;endArrow=none;endFill=0;fontSize=27;" parent="1" source="Ph8quGCG-GJHbFmVUrhd-48" target="Ph8quGCG-GJHbFmVUrhd-45" edge="1">
          <mxGeometry relative="1" as="geometry" />
        </mxCell>
        <mxCell id="Ph8quGCG-GJHbFmVUrhd-48" value="拥有" style="rhombus;whiteSpace=wrap;html=1;fontSize=27;" parent="1" vertex="1">
          <mxGeometry x="-100" y="415" width="80" height="80" as="geometry" />
        </mxCell>
        <mxCell id="Ph8quGCG-GJHbFmVUrhd-54" style="rounded=0;orthogonalLoop=1;jettySize=auto;html=1;exitX=0;exitY=0.5;exitDx=0;exitDy=0;entryX=1;entryY=0.5;entryDx=0;entryDy=0;endArrow=none;endFill=0;fontSize=27;" parent="1" source="Ph8quGCG-GJHbFmVUrhd-49" target="Ph8quGCG-GJHbFmVUrhd-43" edge="1">
          <mxGeometry relative="1" as="geometry" />
        </mxCell>
        <mxCell id="Ph8quGCG-GJHbFmVUrhd-49" value="属于" style="rhombus;whiteSpace=wrap;html=1;fontSize=27;" parent="1" vertex="1">
          <mxGeometry x="-40" y="505" width="80" height="80" as="geometry" />
        </mxCell>
        <mxCell id="Ph8quGCG-GJHbFmVUrhd-52" style="edgeStyle=orthogonalEdgeStyle;rounded=0;orthogonalLoop=1;jettySize=auto;html=1;exitX=0.5;exitY=1;exitDx=0;exitDy=0;entryX=0.5;entryY=0;entryDx=0;entryDy=0;endArrow=none;endFill=0;fontSize=27;" parent="1" source="Ph8quGCG-GJHbFmVUrhd-50" target="Ph8quGCG-GJHbFmVUrhd-44" edge="1">
          <mxGeometry relative="1" as="geometry" />
        </mxCell>
        <mxCell id="Ph8quGCG-GJHbFmVUrhd-50" value="属于" style="rhombus;whiteSpace=wrap;html=1;fontSize=27;" parent="1" vertex="1">
          <mxGeometry x="80" y="545" width="80" height="80" as="geometry" />
        </mxCell>
        <mxCell id="Ph8quGCG-GJHbFmVUrhd-62" value="N" style="text;html=1;align=center;verticalAlign=middle;whiteSpace=wrap;rounded=0;fontSize=27;" parent="1" vertex="1">
          <mxGeometry x="70" y="390" width="60" height="30" as="geometry" />
        </mxCell>
        <mxCell id="Ph8quGCG-GJHbFmVUrhd-63" value="1" style="text;html=1;align=center;verticalAlign=middle;whiteSpace=wrap;rounded=0;fontSize=27;" parent="1" vertex="1">
          <mxGeometry x="-180" y="440" width="60" height="30" as="geometry" />
        </mxCell>
        <mxCell id="Ph8quGCG-GJHbFmVUrhd-66" value="N" style="text;html=1;align=center;verticalAlign=middle;whiteSpace=wrap;rounded=0;fontSize=27;" parent="1" vertex="1">
          <mxGeometry x="60" y="440" width="60" height="30" as="geometry" />
        </mxCell>
        <mxCell id="Ph8quGCG-GJHbFmVUrhd-67" value="1" style="text;html=1;align=center;verticalAlign=middle;whiteSpace=wrap;rounded=0;fontSize=27;" parent="1" vertex="1">
          <mxGeometry x="-150" y="610" width="60" height="30" as="geometry" />
        </mxCell>
        <mxCell id="Ph8quGCG-GJHbFmVUrhd-70" value="1" style="text;html=1;align=center;verticalAlign=middle;whiteSpace=wrap;rounded=0;fontSize=27;" parent="1" vertex="1">
          <mxGeometry x="60" y="610" width="60" height="30" as="geometry" />
        </mxCell>
        <mxCell id="Ph8quGCG-GJHbFmVUrhd-72" value="N" style="text;html=1;align=center;verticalAlign=middle;whiteSpace=wrap;rounded=0;fontSize=27;" parent="1" vertex="1">
          <mxGeometry x="120" y="490" width="60" height="30" as="geometry" />
        </mxCell>
        <mxCell id="jD7vex7ddWac6e5h3DnH-50" style="rounded=0;orthogonalLoop=1;jettySize=auto;html=1;exitX=1;exitY=0;exitDx=0;exitDy=0;entryX=0.5;entryY=1;entryDx=0;entryDy=0;endArrow=none;endFill=0;fontSize=27;" edge="1" parent="1" source="Ph8quGCG-GJHbFmVUrhd-74" target="jD7vex7ddWac6e5h3DnH-49">
          <mxGeometry relative="1" as="geometry" />
        </mxCell>
        <mxCell id="Ph8quGCG-GJHbFmVUrhd-74" value="项目费用" style="rounded=0;whiteSpace=wrap;html=1;fontSize=27;" parent="1" vertex="1">
          <mxGeometry x="-640" y="435" width="120" height="60" as="geometry" />
        </mxCell>
        <mxCell id="Ph8quGCG-GJHbFmVUrhd-75" value="用户组" style="rounded=0;whiteSpace=wrap;html=1;fontSize=27;" parent="1" vertex="1">
          <mxGeometry x="670" y="210" width="120" height="60" as="geometry" />
        </mxCell>
        <mxCell id="Ph8quGCG-GJHbFmVUrhd-79" style="edgeStyle=orthogonalEdgeStyle;rounded=0;orthogonalLoop=1;jettySize=auto;html=1;exitX=1;exitY=0.5;exitDx=0;exitDy=0;entryX=0;entryY=0.5;entryDx=0;entryDy=0;endArrow=none;endFill=0;fontSize=27;" parent="1" source="Ph8quGCG-GJHbFmVUrhd-77" target="Ph8quGCG-GJHbFmVUrhd-75" edge="1">
          <mxGeometry relative="1" as="geometry" />
        </mxCell>
        <mxCell id="Ph8quGCG-GJHbFmVUrhd-77" value="属于" style="rhombus;whiteSpace=wrap;html=1;fontSize=27;" parent="1" vertex="1">
          <mxGeometry x="510" y="200" width="80" height="80" as="geometry" />
        </mxCell>
        <mxCell id="Ph8quGCG-GJHbFmVUrhd-80" value="1" style="text;html=1;align=center;verticalAlign=middle;whiteSpace=wrap;rounded=0;fontSize=27;" parent="1" vertex="1">
          <mxGeometry x="610" y="200" width="60" height="30" as="geometry" />
        </mxCell>
        <mxCell id="Ph8quGCG-GJHbFmVUrhd-81" value="N" style="text;html=1;align=center;verticalAlign=middle;whiteSpace=wrap;rounded=0;fontSize=27;" parent="1" vertex="1">
          <mxGeometry x="450" y="220" width="60" height="30" as="geometry" />
        </mxCell>
        <mxCell id="Ph8quGCG-GJHbFmVUrhd-82" value="辅助帐" style="rounded=0;whiteSpace=wrap;html=1;fontSize=27;" parent="1" vertex="1">
          <mxGeometry x="-490" y="240" width="120" height="60" as="geometry" />
        </mxCell>
        <mxCell id="jD7vex7ddWac6e5h3DnH-45" style="rounded=0;orthogonalLoop=1;jettySize=auto;html=1;exitX=0;exitY=1;exitDx=0;exitDy=0;entryX=0.5;entryY=0;entryDx=0;entryDy=0;endArrow=none;endFill=0;fontSize=27;" edge="1" parent="1" source="Ph8quGCG-GJHbFmVUrhd-83" target="jD7vex7ddWac6e5h3DnH-44">
          <mxGeometry relative="1" as="geometry" />
        </mxCell>
        <mxCell id="Ph8quGCG-GJHbFmVUrhd-83" value="序时账" style="rounded=0;whiteSpace=wrap;html=1;fontSize=27;" parent="1" vertex="1">
          <mxGeometry x="-500" y="60" width="120" height="60" as="geometry" />
        </mxCell>
        <mxCell id="Ph8quGCG-GJHbFmVUrhd-113" style="rounded=0;orthogonalLoop=1;jettySize=auto;html=1;exitX=1;exitY=0.5;exitDx=0;exitDy=0;entryX=0;entryY=0.5;entryDx=0;entryDy=0;endArrow=none;endFill=0;fontSize=27;" parent="1" source="Ph8quGCG-GJHbFmVUrhd-84" target="Ph8quGCG-GJHbFmVUrhd-112" edge="1">
          <mxGeometry relative="1" as="geometry" />
        </mxCell>
        <mxCell id="Ph8quGCG-GJHbFmVUrhd-84" value="项目文件" style="rounded=0;whiteSpace=wrap;html=1;fontSize=27;" parent="1" vertex="1">
          <mxGeometry x="-248" y="-120" width="120" height="60" as="geometry" />
        </mxCell>
        <mxCell id="jD7vex7ddWac6e5h3DnH-7" style="rounded=0;orthogonalLoop=1;jettySize=auto;html=1;exitX=0.5;exitY=1;exitDx=0;exitDy=0;entryX=0.5;entryY=0;entryDx=0;entryDy=0;endArrow=none;endFill=0;fontSize=27;" edge="1" parent="1" source="Ph8quGCG-GJHbFmVUrhd-85" target="jD7vex7ddWac6e5h3DnH-6">
          <mxGeometry relative="1" as="geometry" />
        </mxCell>
        <mxCell id="Ph8quGCG-GJHbFmVUrhd-85" value="项目文件夹" style="rounded=0;whiteSpace=wrap;html=1;fontSize=27;" parent="1" vertex="1">
          <mxGeometry x="100" y="-110" width="120" height="60" as="geometry" />
        </mxCell>
        <mxCell id="jD7vex7ddWac6e5h3DnH-30" style="rounded=0;orthogonalLoop=1;jettySize=auto;html=1;exitX=1;exitY=0;exitDx=0;exitDy=0;entryX=0.5;entryY=1;entryDx=0;entryDy=0;endArrow=none;endFill=0;fontSize=27;" edge="1" parent="1" source="Ph8quGCG-GJHbFmVUrhd-86" target="jD7vex7ddWac6e5h3DnH-29">
          <mxGeometry relative="1" as="geometry" />
        </mxCell>
        <mxCell id="Ph8quGCG-GJHbFmVUrhd-86" value="需求" style="rounded=0;whiteSpace=wrap;html=1;fontSize=27;" parent="1" vertex="1">
          <mxGeometry x="220" y="-35" width="120" height="60" as="geometry" />
        </mxCell>
        <mxCell id="Ph8quGCG-GJHbFmVUrhd-87" value="需求日志" style="rounded=0;whiteSpace=wrap;html=1;fontSize=27;" parent="1" vertex="1">
          <mxGeometry x="250" y="-370" width="120" height="60" as="geometry" />
        </mxCell>
        <mxCell id="Ph8quGCG-GJHbFmVUrhd-88" value="项目结题" style="rounded=0;whiteSpace=wrap;html=1;fontSize=27;" parent="1" vertex="1">
          <mxGeometry x="-160" y="340" width="120" height="60" as="geometry" />
        </mxCell>
        <mxCell id="Ph8quGCG-GJHbFmVUrhd-99" style="rounded=0;orthogonalLoop=1;jettySize=auto;html=1;exitX=0.5;exitY=0;exitDx=0;exitDy=0;entryX=0.5;entryY=1;entryDx=0;entryDy=0;endArrow=none;endFill=0;fontSize=27;" parent="1" source="Ph8quGCG-GJHbFmVUrhd-89" target="Ph8quGCG-GJHbFmVUrhd-97" edge="1">
          <mxGeometry relative="1" as="geometry" />
        </mxCell>
        <mxCell id="Ph8quGCG-GJHbFmVUrhd-89" value="工作日志" style="rounded=0;whiteSpace=wrap;html=1;fontSize=27;" parent="1" vertex="1">
          <mxGeometry x="390" y="35" width="120" height="60" as="geometry" />
        </mxCell>
        <mxCell id="Ph8quGCG-GJHbFmVUrhd-90" value="工时" style="rounded=0;whiteSpace=wrap;html=1;fontSize=27;" parent="1" vertex="1">
          <mxGeometry x="470" y="-200" width="120" height="60" as="geometry" />
        </mxCell>
        <mxCell id="Ph8quGCG-GJHbFmVUrhd-94" style="rounded=0;orthogonalLoop=1;jettySize=auto;html=1;exitX=0.5;exitY=0;exitDx=0;exitDy=0;entryX=0;entryY=0.5;entryDx=0;entryDy=0;endArrow=none;endFill=0;fontSize=27;" parent="1" source="Ph8quGCG-GJHbFmVUrhd-92" target="Ph8quGCG-GJHbFmVUrhd-89" edge="1">
          <mxGeometry relative="1" as="geometry" />
        </mxCell>
        <mxCell id="Ph8quGCG-GJHbFmVUrhd-92" value="上报" style="rhombus;whiteSpace=wrap;html=1;fontSize=27;" parent="1" vertex="1">
          <mxGeometry x="270" y="114" width="80" height="80" as="geometry" />
        </mxCell>
        <mxCell id="Ph8quGCG-GJHbFmVUrhd-95" value="N" style="text;html=1;align=center;verticalAlign=middle;whiteSpace=wrap;rounded=0;fontSize=27;" parent="1" vertex="1">
          <mxGeometry x="345" y="90" width="60" height="30" as="geometry" />
        </mxCell>
        <mxCell id="Ph8quGCG-GJHbFmVUrhd-96" value="1" style="text;html=1;align=center;verticalAlign=middle;whiteSpace=wrap;rounded=0;fontSize=27;" parent="1" vertex="1">
          <mxGeometry x="305" y="200" width="60" height="30" as="geometry" />
        </mxCell>
        <mxCell id="Ph8quGCG-GJHbFmVUrhd-98" style="rounded=0;orthogonalLoop=1;jettySize=auto;html=1;exitX=0.5;exitY=0;exitDx=0;exitDy=0;entryX=0.5;entryY=1;entryDx=0;entryDy=0;endArrow=none;endFill=0;fontSize=27;" parent="1" source="Ph8quGCG-GJHbFmVUrhd-97" target="Ph8quGCG-GJHbFmVUrhd-90" edge="1">
          <mxGeometry relative="1" as="geometry" />
        </mxCell>
        <mxCell id="Ph8quGCG-GJHbFmVUrhd-97" value="关联" style="rhombus;whiteSpace=wrap;html=1;fontSize=27;" parent="1" vertex="1">
          <mxGeometry x="460" y="-100" width="80" height="80" as="geometry" />
        </mxCell>
        <mxCell id="Ph8quGCG-GJHbFmVUrhd-100" value="N" style="text;html=1;align=center;verticalAlign=middle;whiteSpace=wrap;rounded=0;fontSize=27;" parent="1" vertex="1">
          <mxGeometry x="430" y="-5" width="60" height="30" as="geometry" />
        </mxCell>
        <mxCell id="Ph8quGCG-GJHbFmVUrhd-102" value="1" style="text;html=1;align=center;verticalAlign=middle;whiteSpace=wrap;rounded=0;fontSize=27;" parent="1" vertex="1">
          <mxGeometry x="520" y="-130" width="60" height="30" as="geometry" />
        </mxCell>
        <mxCell id="Ph8quGCG-GJHbFmVUrhd-107" style="rounded=0;orthogonalLoop=1;jettySize=auto;html=1;exitX=0;exitY=0.5;exitDx=0;exitDy=0;endArrow=none;endFill=0;fontSize=27;" parent="1" source="Ph8quGCG-GJHbFmVUrhd-105" target="Ph8quGCG-GJHbFmVUrhd-88" edge="1">
          <mxGeometry relative="1" as="geometry" />
        </mxCell>
        <mxCell id="Ph8quGCG-GJHbFmVUrhd-105" value="结题" style="rhombus;whiteSpace=wrap;html=1;fontSize=27;" parent="1" vertex="1">
          <mxGeometry x="10" y="250" width="80" height="80" as="geometry" />
        </mxCell>
        <mxCell id="Ph8quGCG-GJHbFmVUrhd-108" value="1" style="text;html=1;align=center;verticalAlign=middle;whiteSpace=wrap;rounded=0;fontSize=27;" parent="1" vertex="1">
          <mxGeometry y="190" width="60" height="30" as="geometry" />
        </mxCell>
        <mxCell id="Ph8quGCG-GJHbFmVUrhd-109" value="N" style="text;html=1;align=center;verticalAlign=middle;whiteSpace=wrap;rounded=0;fontSize=27;" parent="1" vertex="1">
          <mxGeometry x="-90" y="300" width="60" height="30" as="geometry" />
        </mxCell>
        <mxCell id="Ph8quGCG-GJHbFmVUrhd-111" value="1" style="text;html=1;align=center;verticalAlign=middle;whiteSpace=wrap;rounded=0;fontSize=27;" parent="1" vertex="1">
          <mxGeometry x="250" y="270" width="60" height="30" as="geometry" />
        </mxCell>
        <mxCell id="Ph8quGCG-GJHbFmVUrhd-114" style="rounded=0;orthogonalLoop=1;jettySize=auto;html=1;exitX=1;exitY=0.5;exitDx=0;exitDy=0;entryX=0;entryY=0.5;entryDx=0;entryDy=0;endArrow=none;endFill=0;fontSize=27;" parent="1" source="Ph8quGCG-GJHbFmVUrhd-112" target="Ph8quGCG-GJHbFmVUrhd-85" edge="1">
          <mxGeometry relative="1" as="geometry" />
        </mxCell>
        <mxCell id="Ph8quGCG-GJHbFmVUrhd-112" value="属于" style="rhombus;whiteSpace=wrap;html=1;fontSize=27;" parent="1" vertex="1">
          <mxGeometry x="-30" y="-120" width="80" height="80" as="geometry" />
        </mxCell>
        <mxCell id="Ph8quGCG-GJHbFmVUrhd-115" value="N" style="text;html=1;align=center;verticalAlign=middle;whiteSpace=wrap;rounded=0;fontSize=27;" parent="1" vertex="1">
          <mxGeometry x="-100" y="-120" width="60" height="30" as="geometry" />
        </mxCell>
        <mxCell id="Ph8quGCG-GJHbFmVUrhd-116" value="1" style="text;html=1;align=center;verticalAlign=middle;whiteSpace=wrap;rounded=0;fontSize=27;" parent="1" vertex="1">
          <mxGeometry x="50" y="-110" width="60" height="30" as="geometry" />
        </mxCell>
        <mxCell id="Ph8quGCG-GJHbFmVUrhd-119" style="rounded=0;orthogonalLoop=1;jettySize=auto;html=1;exitX=0;exitY=0.5;exitDx=0;exitDy=0;entryX=0.5;entryY=1;entryDx=0;entryDy=0;endArrow=none;endFill=0;fontSize=27;" parent="1" source="Ph8quGCG-GJHbFmVUrhd-117" target="Ph8quGCG-GJHbFmVUrhd-84" edge="1">
          <mxGeometry relative="1" as="geometry" />
        </mxCell>
        <mxCell id="Ph8quGCG-GJHbFmVUrhd-117" value="属于" style="rhombus;whiteSpace=wrap;html=1;fontSize=27;" parent="1" vertex="1">
          <mxGeometry x="-160" y="10" width="80" height="80" as="geometry" />
        </mxCell>
        <mxCell id="Ph8quGCG-GJHbFmVUrhd-129" value="1" style="text;html=1;align=center;verticalAlign=middle;whiteSpace=wrap;rounded=0;fontSize=27;" parent="1" vertex="1">
          <mxGeometry x="435" y="360" width="60" height="30" as="geometry" />
        </mxCell>
        <mxCell id="jD7vex7ddWac6e5h3DnH-3" value="M" style="text;html=1;align=center;verticalAlign=middle;whiteSpace=wrap;rounded=0;fontSize=27;" vertex="1" parent="1">
          <mxGeometry x="173" y="355" width="60" height="30" as="geometry" />
        </mxCell>
        <mxCell id="jD7vex7ddWac6e5h3DnH-5" value="N" style="text;html=1;align=center;verticalAlign=middle;whiteSpace=wrap;rounded=0;fontSize=27;" vertex="1" parent="1">
          <mxGeometry x="-200" y="-60" width="60" height="30" as="geometry" />
        </mxCell>
        <mxCell id="jD7vex7ddWac6e5h3DnH-8" style="rounded=0;orthogonalLoop=1;jettySize=auto;html=1;exitX=0.5;exitY=1;exitDx=0;exitDy=0;entryX=1;entryY=0;entryDx=0;entryDy=0;endArrow=none;endFill=0;fontSize=27;" edge="1" parent="1" target="Ph8quGCG-GJHbFmVUrhd-13">
          <mxGeometry relative="1" as="geometry">
            <mxPoint x="90" y="90" as="sourcePoint" />
          </mxGeometry>
        </mxCell>
        <mxCell id="jD7vex7ddWac6e5h3DnH-27" style="rounded=0;orthogonalLoop=1;jettySize=auto;html=1;exitX=0.5;exitY=1;exitDx=0;exitDy=0;entryX=1;entryY=0;entryDx=0;entryDy=0;endArrow=none;endFill=0;fontSize=27;" edge="1" parent="1" source="jD7vex7ddWac6e5h3DnH-6" target="Ph8quGCG-GJHbFmVUrhd-13">
          <mxGeometry relative="1" as="geometry" />
        </mxCell>
        <mxCell id="jD7vex7ddWac6e5h3DnH-6" value="属于" style="rhombus;whiteSpace=wrap;html=1;fontSize=27;" vertex="1" parent="1">
          <mxGeometry x="80" y="-10" width="80" height="80" as="geometry" />
        </mxCell>
        <mxCell id="jD7vex7ddWac6e5h3DnH-9" value="N" style="text;html=1;align=center;verticalAlign=middle;whiteSpace=wrap;rounded=0;fontSize=27;" vertex="1" parent="1">
          <mxGeometry x="140" y="-40" width="60" height="30" as="geometry" />
        </mxCell>
        <mxCell id="jD7vex7ddWac6e5h3DnH-19" style="rounded=0;orthogonalLoop=1;jettySize=auto;html=1;exitX=0.5;exitY=0;exitDx=0;exitDy=0;entryX=0.5;entryY=1;entryDx=0;entryDy=0;endArrow=none;endFill=0;fontSize=27;" edge="1" parent="1" source="jD7vex7ddWac6e5h3DnH-15" target="Ph8quGCG-GJHbFmVUrhd-86">
          <mxGeometry relative="1" as="geometry" />
        </mxCell>
        <mxCell id="jD7vex7ddWac6e5h3DnH-15" value="创建" style="rhombus;whiteSpace=wrap;html=1;fontSize=27;" vertex="1" parent="1">
          <mxGeometry x="163" y="84" width="80" height="80" as="geometry" />
        </mxCell>
        <mxCell id="jD7vex7ddWac6e5h3DnH-21" value="N" style="text;html=1;align=center;verticalAlign=middle;whiteSpace=wrap;rounded=0;fontSize=27;" vertex="1" parent="1">
          <mxGeometry x="200" y="30" width="60" height="30" as="geometry" />
        </mxCell>
        <mxCell id="jD7vex7ddWac6e5h3DnH-23" value="1" style="text;html=1;align=center;verticalAlign=middle;whiteSpace=wrap;rounded=0;fontSize=27;" vertex="1" parent="1">
          <mxGeometry x="-70" y="84" width="60" height="30" as="geometry" />
        </mxCell>
        <mxCell id="jD7vex7ddWac6e5h3DnH-25" value="1" style="text;html=1;align=center;verticalAlign=middle;whiteSpace=wrap;rounded=0;fontSize=27;" vertex="1" parent="1">
          <mxGeometry x="290" y="220" width="60" height="30" as="geometry" />
        </mxCell>
        <mxCell id="jD7vex7ddWac6e5h3DnH-26" value="1" style="text;html=1;align=center;verticalAlign=middle;whiteSpace=wrap;rounded=0;fontSize=27;" vertex="1" parent="1">
          <mxGeometry x="90" y="109" width="60" height="30" as="geometry" />
        </mxCell>
        <mxCell id="jD7vex7ddWac6e5h3DnH-28" value="1" style="text;html=1;align=center;verticalAlign=middle;whiteSpace=wrap;rounded=0;fontSize=27;" vertex="1" parent="1">
          <mxGeometry x="70" y="60" width="60" height="30" as="geometry" />
        </mxCell>
        <mxCell id="jD7vex7ddWac6e5h3DnH-31" style="rounded=0;orthogonalLoop=1;jettySize=auto;html=1;exitX=0.5;exitY=0;exitDx=0;exitDy=0;entryX=0.5;entryY=1;entryDx=0;entryDy=0;endArrow=none;endFill=0;fontSize=27;" edge="1" parent="1" source="jD7vex7ddWac6e5h3DnH-29" target="Ph8quGCG-GJHbFmVUrhd-87">
          <mxGeometry relative="1" as="geometry" />
        </mxCell>
        <mxCell id="jD7vex7ddWac6e5h3DnH-29" value="产生" style="rhombus;whiteSpace=wrap;html=1;fontSize=27;" vertex="1" parent="1">
          <mxGeometry x="295" y="-180" width="80" height="80" as="geometry" />
        </mxCell>
        <mxCell id="jD7vex7ddWac6e5h3DnH-32" value="1" style="text;html=1;align=center;verticalAlign=middle;whiteSpace=wrap;rounded=0;fontSize=27;" vertex="1" parent="1">
          <mxGeometry x="320" y="-70" width="60" height="30" as="geometry" />
        </mxCell>
        <mxCell id="jD7vex7ddWac6e5h3DnH-33" value="N" style="text;html=1;align=center;verticalAlign=middle;whiteSpace=wrap;rounded=0;fontSize=27;" vertex="1" parent="1">
          <mxGeometry x="305" y="-290" width="60" height="30" as="geometry" />
        </mxCell>
        <mxCell id="jD7vex7ddWac6e5h3DnH-36" style="rounded=0;orthogonalLoop=1;jettySize=auto;html=1;exitX=0;exitY=0.5;exitDx=0;exitDy=0;entryX=1;entryY=0.5;entryDx=0;entryDy=0;endArrow=none;endFill=0;fontSize=27;" edge="1" parent="1" source="jD7vex7ddWac6e5h3DnH-34" target="Ph8quGCG-GJHbFmVUrhd-83">
          <mxGeometry relative="1" as="geometry" />
        </mxCell>
        <mxCell id="jD7vex7ddWac6e5h3DnH-34" value="导入" style="rhombus;whiteSpace=wrap;html=1;fontSize=27;" vertex="1" parent="1">
          <mxGeometry x="-260" y="95" width="80" height="80" as="geometry" />
        </mxCell>
        <mxCell id="jD7vex7ddWac6e5h3DnH-37" value="N" style="text;html=1;align=center;verticalAlign=middle;whiteSpace=wrap;rounded=0;fontSize=27;" vertex="1" parent="1">
          <mxGeometry x="-370" y="100" width="60" height="30" as="geometry" />
        </mxCell>
        <mxCell id="jD7vex7ddWac6e5h3DnH-38" value="1" style="text;html=1;align=center;verticalAlign=middle;whiteSpace=wrap;rounded=0;fontSize=27;" vertex="1" parent="1">
          <mxGeometry x="-80" y="114" width="60" height="30" as="geometry" />
        </mxCell>
        <mxCell id="jD7vex7ddWac6e5h3DnH-41" style="rounded=0;orthogonalLoop=1;jettySize=auto;html=1;exitX=0;exitY=0.5;exitDx=0;exitDy=0;entryX=1;entryY=0.5;entryDx=0;entryDy=0;endArrow=none;endFill=0;fontSize=27;" edge="1" parent="1" source="jD7vex7ddWac6e5h3DnH-39" target="Ph8quGCG-GJHbFmVUrhd-82">
          <mxGeometry relative="1" as="geometry" />
        </mxCell>
        <mxCell id="jD7vex7ddWac6e5h3DnH-39" value="填报" style="rhombus;whiteSpace=wrap;html=1;fontSize=27;" vertex="1" parent="1">
          <mxGeometry x="-240" y="220" width="80" height="80" as="geometry" />
        </mxCell>
        <mxCell id="jD7vex7ddWac6e5h3DnH-42" value="N" style="text;html=1;align=center;verticalAlign=middle;whiteSpace=wrap;rounded=0;fontSize=27;" vertex="1" parent="1">
          <mxGeometry x="-370" y="240" width="60" height="30" as="geometry" />
        </mxCell>
        <mxCell id="jD7vex7ddWac6e5h3DnH-43" value="1" style="text;html=1;align=center;verticalAlign=middle;whiteSpace=wrap;rounded=0;fontSize=27;" vertex="1" parent="1">
          <mxGeometry x="-90" y="155" width="60" height="30" as="geometry" />
        </mxCell>
        <mxCell id="jD7vex7ddWac6e5h3DnH-46" style="rounded=0;orthogonalLoop=1;jettySize=auto;html=1;exitX=0.5;exitY=1;exitDx=0;exitDy=0;entryX=0;entryY=1;entryDx=0;entryDy=0;endArrow=none;endFill=0;fontSize=27;" edge="1" parent="1" source="jD7vex7ddWac6e5h3DnH-44" target="Ph8quGCG-GJHbFmVUrhd-82">
          <mxGeometry relative="1" as="geometry" />
        </mxCell>
        <mxCell id="jD7vex7ddWac6e5h3DnH-44" value="标准化" style="rhombus;whiteSpace=wrap;html=1;fontSize=27;" vertex="1" parent="1">
          <mxGeometry x="-630" y="144" width="80" height="80" as="geometry" />
        </mxCell>
        <mxCell id="jD7vex7ddWac6e5h3DnH-47" value="1" style="text;html=1;align=center;verticalAlign=middle;whiteSpace=wrap;rounded=0;fontSize=27;" vertex="1" parent="1">
          <mxGeometry x="-570" y="280" width="60" height="30" as="geometry" />
        </mxCell>
        <mxCell id="jD7vex7ddWac6e5h3DnH-48" value="1" style="text;html=1;align=center;verticalAlign=middle;whiteSpace=wrap;rounded=0;fontSize=27;" vertex="1" parent="1">
          <mxGeometry x="-570" y="90" width="60" height="30" as="geometry" />
        </mxCell>
        <mxCell id="jD7vex7ddWac6e5h3DnH-51" style="rounded=0;orthogonalLoop=1;jettySize=auto;html=1;exitX=1;exitY=0.5;exitDx=0;exitDy=0;entryX=0;entryY=0;entryDx=0;entryDy=0;endArrow=none;endFill=0;fontSize=27;" edge="1" parent="1" source="jD7vex7ddWac6e5h3DnH-49" target="Ph8quGCG-GJHbFmVUrhd-45">
          <mxGeometry relative="1" as="geometry" />
        </mxCell>
        <mxCell id="jD7vex7ddWac6e5h3DnH-52" style="rounded=0;orthogonalLoop=1;jettySize=auto;html=1;exitX=0.5;exitY=0;exitDx=0;exitDy=0;entryX=0.5;entryY=1;entryDx=0;entryDy=0;endArrow=none;endFill=0;fontSize=27;" edge="1" parent="1" source="jD7vex7ddWac6e5h3DnH-49" target="Ph8quGCG-GJHbFmVUrhd-82">
          <mxGeometry relative="1" as="geometry" />
        </mxCell>
        <mxCell id="jD7vex7ddWac6e5h3DnH-49" value="包含" style="rhombus;whiteSpace=wrap;html=1;fontSize=27;" vertex="1" parent="1">
          <mxGeometry x="-413" y="350" width="80" height="80" as="geometry" />
        </mxCell>
        <mxCell id="jD7vex7ddWac6e5h3DnH-53" value="1" style="text;html=1;align=center;verticalAlign=middle;whiteSpace=wrap;rounded=0;fontSize=27;" vertex="1" parent="1">
          <mxGeometry x="-460" y="320" width="60" height="30" as="geometry" />
        </mxCell>
        <mxCell id="jD7vex7ddWac6e5h3DnH-54" value="1" style="text;html=1;align=center;verticalAlign=middle;whiteSpace=wrap;rounded=0;fontSize=27;" vertex="1" parent="1">
          <mxGeometry x="-320" y="415" width="60" height="30" as="geometry" />
        </mxCell>
        <mxCell id="jD7vex7ddWac6e5h3DnH-55" value="N" style="text;html=1;align=center;verticalAlign=middle;whiteSpace=wrap;rounded=0;fontSize=27;" vertex="1" parent="1">
          <mxGeometry x="-530" y="406" width="60" height="30" as="geometry" />
        </mxCell>
        <mxCell id="jD7vex7ddWac6e5h3DnH-58" style="rounded=0;orthogonalLoop=1;jettySize=auto;html=1;exitX=0;exitY=0.5;exitDx=0;exitDy=0;entryX=0;entryY=1;entryDx=0;entryDy=0;endArrow=none;endFill=0;fontSize=27;" edge="1" parent="1" source="jD7vex7ddWac6e5h3DnH-56" target="jD7vex7ddWac6e5h3DnH-26">
          <mxGeometry relative="1" as="geometry" />
        </mxCell>
        <mxCell id="jD7vex7ddWac6e5h3DnH-56" value="创建" style="rhombus;whiteSpace=wrap;html=1;fontSize=27;" vertex="1" parent="1">
          <mxGeometry x="110" y="175" width="80" height="80" as="geometry" />
        </mxCell>
        <mxCell id="jD7vex7ddWac6e5h3DnH-59" value="N" style="text;html=1;align=center;verticalAlign=middle;whiteSpace=wrap;rounded=0;fontSize=27;" vertex="1" parent="1">
          <mxGeometry x="260" y="245" width="60" height="30" as="geometry" />
        </mxCell>
        <mxCell id="jD7vex7ddWac6e5h3DnH-61" value="M" style="text;html=1;align=center;verticalAlign=middle;whiteSpace=wrap;rounded=0;fontSize=27;" vertex="1" parent="1">
          <mxGeometry x="50" y="155" width="60" height="30" as="geometry" />
        </mxCell>
      </root>
    </mxGraphModel>
  </diagram>
</mxfile>
